Coordinates
version=1
nRows=9
nColumns=63
inDegrees=yes

Units are S.I. units (second, meters, Newtons, ...)
If the header above contains a line with 'inDegrees', this indicates whether rotational values are in degrees (yes) or radians (no).

endheader
time	pelvis_tilt	pelvis_list	pelvis_rotation	pelvis_tx	pelvis_ty	pelvis_tz	hip_flexion_r	hip_adduction_r	hip_rotation_r	knee_angle_r	knee_angle_r_beta	ankle_angle_r	subtalar_angle_r	mtp_angle_r	hip_flexion_l	hip_adduction_l	hip_rotation_l	knee_angle_l	knee_angle_l_beta	ankle_angle_l	subtalar_angle_l	mtp_angle_l	L5_S1_Flex_Ext	L5_S1_Lat_Bending	L5_S1_axial_rotation	L4_L5_Flex_Ext	L4_L5_Lat_Bending	L4_L5_axial_rotation	L3_L4_Flex_Ext	L3_L4_Lat_Bending	L3_L4_axial_rotation	L2_L3_Flex_Ext	L2_L3_Lat_Bending	L2_L3_axial_rotation	L1_L2_Flex_Ext	L1_L2_Lat_Bending	L1_L2_axial_rotation	L1_T12_Flex_Ext	L1_T12_Lat_Bending	L1_T12_axial_rotation	Abs_r3	Abs_r2	Abs_r1	Abs_t1	Abs_t2	neck_flexion	neck_bending	neck_rotation	arm_flex_r	arm_add_r	arm_rot_r	elbow_flex_r	pro_sup_r	wrist_flex_r	wrist_dev_r	arm_flex_l	arm_add_l	arm_rot_l	elbow_flex_l	pro_sup_l	wrist_flex_l	wrist_dev_l
0.000000	2.179998	-3.010064	89.168713	0.152986	0.878996	0.448387	7.712429	-3.577164	-21.725172	19.095736	0.333283	34.124502	18.650140	0.000000	10.405191	-1.677226	-5.690905	20.086181	0.350570	30.609199	-0.550248	0.000000	0.077165	-0.299780	2.215486	0.143304	-0.398707	2.353954	0.126775	-0.728885	2.353954	0.088192	-0.728885	1.938550	0.071656	-0.611311	1.800082	0.044092	-0.464359	1.661615	0.551184	-3.391172	12.321869	0.000000	0.000000	23.486031	2.352003	-19.859270	3.807661	-9.663221	43.677075	58.033125	51.184888	-13.460745	2.430370	23.126021	-13.710858	76.620611	62.772833	68.236403	-18.827122	2.536860
0.016949	2.156070	-2.790698	89.511522	0.151884	0.879955	0.447559	7.201109	-3.671304	-22.175952	18.835829	0.328747	33.698582	18.666722	0.000000	9.934141	-1.429158	-4.745441	19.719203	0.344165	29.869379	-0.972922	0.000000	0.057975	-0.302380	2.303429	0.107666	-0.402165	2.447393	0.095247	-0.735206	2.447393	0.066260	-0.735206	2.015500	0.053836	-0.616613	1.871536	0.033127	-0.468386	1.727571	0.414111	-3.420580	12.810978	0.000000	0.000000	23.212026	2.693846	-20.251895	3.028088	-10.008742	42.998926	58.656625	61.866502	-8.071887	5.961588	23.503261	-14.429174	79.477681	63.832695	65.642884	-17.751967	2.737044
0.033898	2.106270	-2.591677	89.813116	0.150921	0.880839	0.446807	6.741468	-3.779355	-22.566141	18.599601	0.324624	33.340201	18.678625	0.000000	9.509915	-1.168668	-3.815792	19.384992	0.338332	29.185823	-1.499660	0.000000	0.041183	-0.307858	2.355949	0.076482	-0.409451	2.503196	0.067660	-0.748526	2.503196	0.047068	-0.748526	2.061456	0.038243	-0.627784	1.914209	0.023532	-0.476872	1.766962	0.294169	-3.482549	13.103083	0.000000	0.000000	22.936757	3.027356	-20.518291	2.416503	-10.267642	42.626892	59.133651	70.031798	-3.741462	8.731630	23.724992	-15.031690	81.728975	64.676311	64.085109	-16.925268	2.926788
0.050847	2.035601	-2.412385	90.078539	0.150083	0.881650	0.446133	6.331413	-3.897667	-22.902364	18.386566	0.320906	33.043824	18.686430	0.000000	9.131778	-0.900519	-2.906425	19.083900	0.333077	28.556748	-2.113987	0.000000	0.026662	-0.315625	2.376640	0.049514	-0.419782	2.525180	0.043803	-0.767411	2.525180	0.030472	-0.767411	2.079560	0.024758	-0.643623	1.931020	0.015235	-0.488904	1.782480	0.190444	-3.570417	13.218160	0.000000	0.000000	22.664210	3.347031	-20.672523	1.959177	-10.450537	42.529946	59.479024	75.929816	-0.378531	10.813590	23.809374	-15.528339	83.431155	65.324893	63.439124	-16.319999	3.106700
0.067797	1.949067	-2.252203	90.312832	0.149357	0.882388	0.445538	5.968850	-4.022586	-23.191244	18.196235	0.317584	32.803915	18.690721	0.000000	8.798994	-0.629475	-2.021808	18.816280	0.328406	27.980372	-2.799430	0.000000	0.014283	-0.325094	2.369094	0.026525	-0.432374	2.517162	0.023466	-0.790432	2.517162	0.016324	-0.790432	2.072957	0.013263	-0.662931	1.924889	0.008161	-0.503570	1.776820	0.102024	-3.677523	13.176188	0.000000	0.000000	22.398373	3.647367	-20.728658	1.642381	-10.568044	42.677061	59.707567	79.809594	2.107844	12.280566	23.774564	-15.929051	84.640887	65.799653	63.580974	-15.909129	3.277390
0.084746	1.851672	-2.110515	90.521036	0.148727	0.883055	0.445024	5.651684	-4.150462	-23.439407	18.028119	0.314650	32.614937	18.692080	0.000000	8.510825	-0.360302	-1.166408	18.582486	0.324326	27.454913	-3.539516	0.000000	0.003919	-0.335673	2.336901	0.007278	-0.446446	2.482957	0.006438	-0.816156	2.482957	0.004479	-0.816156	2.044788	0.003639	-0.684505	1.898732	0.002239	-0.519958	1.752676	0.027992	-3.797205	12.997143	0.000000	0.000000	22.143231	3.922860	-20.700765	1.452385	-10.630780	43.037211	59.834101	81.920171	3.808601	13.205653	23.638718	-16.243758	85.414832	66.121804	64.386706	-15.665631	3.439467
0.101695	1.748420	-1.986703	90.708193	0.148180	0.883651	0.444593	5.377820	-4.277642	-23.653477	17.881730	0.312095	32.471354	18.691089	0.000000	8.266535	-0.097764	-0.344691	18.382871	0.320842	26.978588	-4.317771	0.000000	-0.004559	-0.346776	2.283655	-0.008466	-0.461212	2.426383	-0.007490	-0.843152	2.426383	-0.005210	-0.843152	1.998198	-0.004233	-0.707146	1.855469	-0.002605	-0.537156	1.712741	-0.032563	-3.922802	12.701002	0.000000	0.000000	21.902773	4.168005	-20.602909	1.375461	-10.649362	43.579369	59.873448	82.510588	4.814677	13.661947	23.419995	-16.482392	85.809656	66.312558	65.732366	-15.562477	3.593540
0.118644	1.644315	-1.880149	90.879345	0.147700	0.884177	0.444246	5.145165	-4.400474	-23.840078	17.756580	0.309911	32.367631	18.688332	0.000000	8.065387	0.153374	0.438874	18.217788	0.317960	26.549614	-5.117722	0.000000	-0.011278	-0.357813	2.212946	-0.020944	-0.475891	2.351256	-0.018528	-0.869987	2.351256	-0.012889	-0.869987	1.936328	-0.010473	-0.729653	1.798019	-0.006444	-0.554253	1.659710	-0.080556	-4.047654	12.307744	0.000000	0.000000	21.680985	4.377300	-20.449158	1.397880	-10.634408	44.272507	59.840431	81.829882	5.217011	13.722545	23.136552	-16.654884	85.882022	66.393127	67.493999	-15.572636	3.740218
0.135593	1.544361	-1.790237	91.039534	0.147274	0.884635	0.443984	4.951624	-4.515306	-24.005835	17.652180	0.308089	32.298230	18.684390	0.000000	7.906646	0.388349	1.179821	18.087589	0.315688	26.166209	-5.922896	0.000000	-0.016366	-0.368195	2.128368	-0.030394	-0.489700	2.261391	-0.026888	-0.895230	2.261391	-0.018705	-0.895230	1.862322	-0.015198	-0.750824	1.729299	-0.009352	-0.570334	1.596276	-0.116902	-4.165098	11.837346	0.000000	0.000000	21.481854	4.545240	-20.253579	1.505913	-10.596535	45.085599	59.749871	80.127093	5.106541	13.460541	22.806546	-16.771165	85.688594	66.384723	69.547651	-15.669082	3.880110
